<svg xmlns="http://www.w3.org/2000/svg" width="186" height="26" fill="none"><rect width="115" height="4" fill="#ADB5BE" rx="2"/><rect width="22" height="4" x="121" fill="#ADB5BE" rx="2"/><rect width="22" height="4" x="149" fill="#ADB5BE" rx="2"/><rect width="9" height="4" x="177" fill="#ADB5BE" rx="2"/><rect width="115" height="4" fill="#ADB5BE" rx="2" transform="matrix(-1 0 0 1 186 22)"/><rect width="22" height="4" fill="#ADB5BE" rx="2" transform="matrix(-1 0 0 1 65 22)"/><rect width="22" height="4" fill="#ADB5BE" rx="2" transform="matrix(-1 0 0 1 37 22)"/><rect width="9" height="4" fill="#ADB5BE" rx="2" transform="matrix(-1 0 0 1 9 22)"/><rect width="60" height="4" x="42" y="11" fill="#ADB5BE" rx="2"/><rect width="22" height="4" x="14" y="11" fill="#ADB5BE" rx="2"/><rect width="46" height="4" x="108" y="11" fill="#ADB5BE" rx="2"/><rect width="9" height="4" x="160" y="11" fill="#ADB5BE" rx="2"/></svg>